<svg width="34" height="40" viewBox="0 0 34 40" fill="none" xmlns="http://www.w3.org/2000/svg">
<path fill-rule="evenodd" clip-rule="evenodd" d="M24.2088 0.110233C23.2663 0.449289 23.234 0.551914 23.2874 3.03137C23.3325 5.12423 23.29 5.66697 23.0683 5.82905C22.9838 5.89078 22.7169 5.93356 22.4158 5.93356C21.9973 5.93356 21.8547 5.9692 21.6182 6.13309C21.3504 6.31875 21.3053 6.32627 20.9692 6.24167C20.6334 6.15714 20.5788 6.16615 20.1953 6.36968C19.9683 6.49008 19.5805 6.61355 19.3336 6.6441C19.0751 6.67598 18.6836 6.80415 18.4106 6.94626C18.1499 7.08194 17.307 7.38426 16.5376 7.6181C15.0764 8.06229 12.9178 8.81944 11.5226 9.37738C9.5628 10.161 6.19434 12.0239 4.74129 13.1278C2.44797 14.87 0.745638 17.2795 0.166157 19.6039C-0.0805352 20.5934 -0.048494 21.4449 0.23541 21.4449C0.274737 21.4449 0.634787 21.1386 1.03565 20.7641C1.82963 20.0225 3.41264 18.736 4.13181 18.2481C4.74826 17.8299 6.42427 16.8228 6.50394 16.8228C6.61714 16.8228 6.97641 17.302 7.20289 17.755C7.57587 18.5011 7.7168 19.0594 8.03157 21.0371C8.28993 22.6604 8.78324 23.5867 9.83339 24.4202C10.8443 25.2227 11.8347 25.5284 13.9071 25.6779C16.5348 25.8674 17.2152 26.1504 18.6542 27.6522L19.4844 28.5186L19.2544 29.2317C18.972 30.1073 18.8875 31.1043 18.8841 33.5978L18.8817 35.3707L18.61 36.1213C18.4605 36.5341 18.2097 37.127 18.0527 37.4388C17.5338 38.4692 17.6167 39.1282 18.3211 39.5729C18.8648 39.9161 19.4473 40.0373 20.328 39.9903C21.848 39.9091 22.0516 39.6559 21.7468 38.2251C21.5691 37.3913 21.5389 36.3076 21.6589 35.0723C21.7784 33.8419 21.8737 33.5147 22.5055 32.1649C22.7003 31.7486 22.9148 31.2374 22.9822 31.029C23.1255 30.5852 23.2687 29.5894 23.2687 29.0365C23.2687 28.7576 23.3223 28.5668 23.4598 28.3567C23.5649 28.1961 23.6728 27.9744 23.6996 27.8641C23.7263 27.7539 23.9511 27.4895 24.1991 27.2766C24.6014 26.9313 25.0952 26.3923 25.4135 25.9512C25.5174 25.8072 25.5366 25.8346 25.6882 26.3429C25.7779 26.6435 25.8814 27.09 25.9183 27.3351L25.9854 27.7808L25.4961 28.2656C25.2271 28.5323 24.9454 28.887 24.8701 29.0539C24.7581 29.3024 24.6933 29.3572 24.5117 29.3572C24.219 29.3572 24.1723 29.5543 24.2356 30.5235C24.289 31.3413 24.3919 31.7984 24.7936 33C24.9376 33.4309 25.0989 34.0052 25.1521 34.2763C25.2817 34.9367 25.2046 35.9107 24.9647 36.6428C24.5835 37.8059 24.6403 38.2718 25.2096 38.652C25.5116 38.8537 25.8227 38.8872 28.4391 38.9998C29.4517 39.0433 30.71 39.0996 31.2354 39.1247C32.3129 39.1763 32.7967 39.0932 33.1983 38.7873C33.5084 38.551 33.5381 38.2387 33.274 37.9905C33.1756 37.8981 32.7084 37.6608 32.236 37.4632C30.7641 36.8478 29.1039 35.8427 29.0223 35.5174C28.9966 35.4148 28.9876 34.6302 29.0024 33.7738C29.025 32.4665 29.0657 32.0205 29.2564 30.9947C29.3812 30.3227 29.4598 29.7111 29.4309 29.6359C29.4021 29.5606 29.3081 29.4806 29.2221 29.4581C29.0179 29.4048 29.0248 29.2669 29.269 28.5251C29.3832 28.1779 29.4908 27.6337 29.5147 27.2812C29.5439 26.8539 29.6142 26.5412 29.7357 26.2986C30.1477 25.4753 30.2022 25.1268 30.1947 23.3642C30.1889 22.0502 30.1553 21.5535 30.0275 20.8965C29.9395 20.4441 29.8755 20.0648 29.8853 20.0535C29.8952 20.0423 30.0541 20.0863 30.2386 20.1514C30.4231 20.2165 30.7762 20.2698 31.0235 20.2698C31.4621 20.2698 31.4819 20.2602 31.8413 19.876C32.0439 19.6594 32.3203 19.2452 32.4554 18.9555C32.5906 18.6658 32.9211 18.0893 33.19 17.6743C34.0694 16.3168 34.1581 15.32 33.492 14.2809C33.2049 13.8332 33.193 13.7875 33.185 13.1058C33.1782 12.5238 33.1438 12.3347 32.9936 12.0515C32.8239 11.7314 32.8172 11.673 32.9011 11.246C33.1117 10.1756 32.6006 9.00895 31.686 8.47303C31.5017 8.36492 31.2611 8.15896 31.1515 8.01528C31.0153 7.83675 30.861 7.73686 30.6642 7.69997C30.5058 7.67028 30.2778 7.57313 30.1575 7.48422C30.031 7.39068 29.8727 7.33976 29.782 7.3635C29.6789 7.39044 29.5627 7.33764 29.4434 7.20979C29.1643 6.91069 28.6796 6.68852 28.2041 6.64183L27.7732 6.59945L27.702 5.93692C27.6497 5.44981 27.668 4.79661 27.7713 3.46922C27.9607 1.03496 27.871 0.610277 27.0803 0.196799C26.7991 0.0497546 26.6058 0.0236674 25.6581 0.00502253C24.8027 -0.0118206 24.4837 0.0113681 24.2088 0.110233ZM26.7806 0.790851C27.2084 1.01945 27.2934 1.33837 27.2327 2.4866C27.1338 4.35649 26.8643 5.2983 26.3688 5.50535C26.0429 5.64158 25.0459 5.65811 24.6877 5.53324C24.2474 5.37969 23.9663 4.5637 23.8506 3.1029C23.7875 2.3072 23.8693 1.14205 24.0009 0.96218C24.1896 0.704128 24.6743 0.604088 25.6189 0.628295C26.2989 0.645765 26.5837 0.68564 26.7806 0.790851ZM24.6039 5.85624C24.7523 5.89877 25.2118 5.93356 25.6252 5.93356H26.3768L26.8204 5.61589L27.264 5.29822V5.72243C27.264 5.95581 27.286 6.30747 27.313 6.50387L27.362 6.8611L26.9468 7.07144C26.4524 7.32205 26.1871 7.30615 25.083 6.95997C24.2338 6.69377 24.0772 6.60054 23.7946 6.19271C23.6086 5.92423 23.5876 5.83649 23.632 5.51217L23.6831 5.13982L24.0087 5.45936C24.1877 5.63508 24.4556 5.8137 24.6039 5.85624ZM23.415 6.59435C24.1616 6.93098 25.5971 7.35002 26.1673 7.39773C26.5509 7.42985 26.6696 7.39883 27.2502 7.11453C28.0025 6.74625 28.3453 6.71398 28.7632 6.97195C29.0235 7.13263 29.4576 7.57815 29.4576 7.68469C29.4576 7.70897 29.2251 7.62453 28.9411 7.49707C28.333 7.22429 28.0738 7.21316 27.2003 7.42256C26.3685 7.62202 26.2139 7.61904 25.2664 7.38535C24.4265 7.17814 24.0635 7.15503 22.8365 7.23055C22.1018 7.27583 22.0051 7.26346 21.3181 7.03705C20.9146 6.90411 20.4921 6.79404 20.3794 6.79255L20.1743 6.78973L20.3701 6.67779C20.7004 6.48899 21.0927 6.53325 21.4624 6.80109C21.8186 7.05914 21.9225 7.0611 21.7866 6.80713C21.6641 6.57837 21.6778 6.53364 21.9173 6.38009C22.212 6.19122 22.6645 6.256 23.415 6.59435ZM21.5452 7.38386C21.9758 7.5002 22.254 7.51399 23.347 7.47302C24.4816 7.43048 24.7115 7.4434 25.2272 7.57862C25.9426 7.76624 26.6508 7.77697 27.2919 7.61003C28.1594 7.3841 28.3909 7.41716 29.1834 7.88015C30.4454 8.61748 30.8137 9.15458 30.8233 10.2718C30.8305 11.1136 30.7827 11.1376 29.8375 10.7668C29.4346 10.6088 28.9111 10.439 28.6742 10.3894C28.003 10.249 26.1564 10.3526 25.0705 10.5916C23.566 10.9226 23.2981 10.8737 22.1349 10.0551C21.7913 9.81334 21.4882 9.61553 21.4612 9.61553C21.3867 9.61553 21.179 10.137 20.9933 10.7906C20.6392 12.0373 20.0098 12.7491 19.2615 12.7491C19.1363 12.7491 18.8244 12.6434 18.5683 12.5141C18.3122 12.3849 18.0798 12.2791 18.0518 12.2791C18.0238 12.2791 18.236 12.5282 18.5232 12.8327C18.9634 13.2992 19.1359 13.5733 19.6211 14.5758C19.9378 15.23 20.3935 16.0338 20.6338 16.3619C21.0533 16.9349 21.086 16.9608 21.4511 17.0092C21.9794 17.0792 22.5701 17.3932 22.9507 17.8061C23.2642 18.1461 23.2694 18.1609 23.1556 18.381C23.0052 18.6718 22.1158 19.4778 21.88 19.537C21.6904 19.5846 21.2319 19.435 21.2319 19.3255C21.2319 19.2906 21.0562 19.0958 20.8415 18.8925C20.5581 18.6242 20.4388 18.4455 20.4061 18.2408C20.3813 18.0857 20.3469 17.8882 20.3295 17.8021C20.2932 17.6214 19.5636 17.1207 17.9807 16.19C16.9415 15.5789 16.2681 15.0967 15.9649 14.7468C15.7399 14.4869 15.4483 13.8565 15.3499 13.4169C15.247 12.9571 15.2512 12.944 15.7731 12.0927C15.9285 11.8395 16.1626 11.2873 16.2936 10.8658C16.479 10.2688 16.585 10.0544 16.7727 9.89654C17.2284 9.51299 17.6134 9.53453 18.1491 9.97339C18.4223 10.1974 18.468 10.2144 18.4327 10.0795C18.4096 9.99094 18.2152 9.72662 18.0009 9.49207C17.6536 9.11212 17.6165 9.03794 17.6614 8.81177C17.7765 8.23111 18.5106 7.53835 19.2342 7.32769C19.9859 7.10873 20.5803 7.12323 21.5452 7.38386ZM30.0667 7.8333C30.1982 7.95629 30.3513 8.00957 30.5735 8.00957C30.7581 8.00957 30.906 8.05069 30.9255 8.10749C30.9495 8.17745 30.8448 8.20542 30.5592 8.20542C30.2572 8.20542 30.082 8.15434 29.844 7.9968C29.617 7.84654 29.5572 7.77016 29.6303 7.72378C29.7875 7.62405 29.8634 7.64309 30.0667 7.8333ZM17.1014 8.53836C17.035 8.76453 16.9702 8.99015 16.9574 9.03966C16.9446 9.08917 16.7995 9.17276 16.6349 9.2254C16.05 9.4124 15.8056 9.75146 15.3658 10.9865L15.1148 11.6915L14.0017 12.1972C12.4149 12.9179 7.95534 15.1426 6.7663 15.8067C4.74662 16.9346 2.85009 18.273 1.33781 19.6379C0.930912 20.0051 0.617866 20.2535 0.64223 20.1898C0.666593 20.126 0.819199 19.6376 0.981363 19.1045C1.95239 15.9115 4.69421 13.3546 9.79422 10.8863C10.5482 10.5213 11.7468 9.99376 12.4578 9.71393C13.6406 9.24843 16.9166 8.13844 17.1314 8.13044C17.1962 8.12802 17.1876 8.24482 17.1014 8.53836ZM31.3131 8.72489C31.6844 8.85666 32.1378 9.31643 32.3152 9.74088C32.4566 10.0792 32.4698 10.7823 32.345 11.323C32.2604 11.6894 32.269 11.7377 32.5017 12.2032C32.7062 12.6124 32.7478 12.7872 32.7478 13.2352C32.7478 13.8207 32.7657 13.79 32.0808 14.3751C31.7284 14.6761 31.7522 14.7556 32.1457 14.5911C32.7188 14.3517 33.1584 14.4679 33.342 14.9072C33.5977 15.5192 33.3774 16.6325 32.8577 17.3553C32.712 17.558 32.4188 18.0786 32.2061 18.5123C31.7655 19.4109 31.3351 19.8781 30.948 19.8781C30.6786 19.8781 29.9335 19.5664 29.7914 19.3942C29.7381 19.3296 29.6521 19.005 29.6005 18.6728L29.5067 18.0689L29.783 17.7927C30.0233 17.5522 30.1298 17.5075 30.6023 17.4481C31.2587 17.3657 31.416 17.3108 31.416 17.1642C31.416 17.1026 31.275 16.7861 31.1027 16.4609C30.7365 15.7698 30.6836 15.2834 30.946 15.021C31.0322 14.9348 31.1626 14.8643 31.2359 14.8643C31.4533 14.8643 31.251 14.739 30.8672 14.636C30.6731 14.5839 30.4367 14.4818 30.3421 14.409L30.1699 14.2768L30.4514 13.65C30.6713 13.1606 30.7413 12.8904 30.7712 12.4162C30.8002 11.9559 30.8369 11.8091 30.9229 11.8091C30.9853 11.8091 31.1438 11.7017 31.275 11.5704C31.5097 11.3358 31.513 11.3211 31.4783 10.6891C31.4389 9.9766 31.2313 9.46254 30.7365 8.85282L30.4673 8.52097L30.7262 8.56468C30.8686 8.58881 31.1328 8.66088 31.3131 8.72489ZM22.026 10.5074C22.4775 10.894 23.3183 11.2843 23.7822 11.323C24.0182 11.3425 24.5088 11.2854 24.9965 11.1815C26.2222 10.9201 27.9501 10.8792 28.8308 11.0904C29.7693 11.3157 30.0714 11.4563 30.1315 11.6959C30.2062 11.9937 30.0267 12.7831 29.7136 13.5325C29.3114 14.4953 29.1462 15.1839 29.0915 16.1268L29.0431 16.9584L28.4551 17.0082C27.4284 17.0949 26.1832 17.0633 25.6248 16.9363C24.9016 16.7718 23.3376 15.9858 23.2168 15.7261C23.1668 15.6183 23.1014 15.2971 23.0717 15.0122L23.0178 14.4942L23.3372 14.268C23.513 14.1436 23.6458 14.0066 23.6325 13.9636C23.6192 13.9205 23.4021 13.8761 23.1501 13.8648C22.5692 13.8387 22.2267 13.6405 21.515 12.9184L20.9755 12.3712L21.1334 12.1097C21.3459 11.7576 21.4448 11.4026 21.5062 10.7711C21.5346 10.4802 21.5933 10.2423 21.6369 10.2423C21.6805 10.2423 21.8556 10.3616 22.026 10.5074ZM20.5942 13.5465C20.8372 13.7696 21.272 14.1251 21.5606 14.3365C22.0483 14.6938 22.0912 14.7495 22.1698 15.1282C22.3241 15.8714 22.3738 16.3109 22.3307 16.5486C22.2836 16.8075 22.2961 16.8039 21.7411 16.7164C21.3808 16.6596 21.3234 16.619 21.0263 16.21C20.8486 15.9654 20.6234 15.6073 20.5259 15.4143C20.3519 15.0699 19.7434 13.4855 19.7434 13.3768C19.7434 13.3317 20.0161 13.1665 20.1241 13.1462C20.1396 13.1432 20.3512 13.3234 20.5942 13.5465ZM15.5798 15.4127C15.9303 15.7391 16.4248 16.043 17.619 16.6661C19.5328 17.6647 19.9001 17.9146 19.9001 18.2184C19.9001 18.3388 20.0146 18.6089 20.1547 18.8186C20.2948 19.0284 20.458 19.2908 20.5176 19.4019C20.6935 19.7298 20.8424 19.8661 21.0824 19.9188C21.3795 19.9841 21.4175 20.0621 21.3104 20.3865C21.1929 20.7426 19.7479 22.1225 18.6075 22.9676C17.5579 23.7454 16.5795 24.3103 15.5914 24.709L14.8471 25.0093L13.5545 25.0056C12.5392 25.0025 12.1611 24.9713 11.7919 24.8596C11.0864 24.6462 10.2834 24.1984 9.87632 23.7913C9.4771 23.3921 9.01442 22.5734 8.82633 21.9332L8.70514 21.5206L9.14047 20.651C9.98161 18.9707 10.9811 17.6778 13.115 15.5091L14.6004 13.9995L14.8587 14.4907C15.012 14.7821 15.3054 15.1571 15.5798 15.4127ZM30.1894 15.0296C30.3627 15.1086 30.3733 15.1415 30.3055 15.3872C30.2013 15.7646 30.2802 16.0376 30.6376 16.5367C30.8072 16.7736 30.946 16.9878 30.946 17.0126C30.946 17.0375 30.7368 17.0578 30.4811 17.0578C30.2254 17.0578 29.9208 17.0941 29.8043 17.1384C29.6878 17.1826 29.5782 17.2046 29.5608 17.1872C29.518 17.1443 29.6745 15.865 29.7851 15.3539C29.8808 14.912 29.8992 14.8974 30.1894 15.0296ZM23.479 16.7529C24.7629 17.2579 26.4065 17.4979 27.9887 17.4115L28.9875 17.357V17.7599C28.9875 17.9815 29.11 18.7867 29.2596 19.5493C29.6818 21.701 29.7926 22.7201 29.7471 24.0301C29.7046 25.2527 29.6135 25.6604 29.2319 26.3367C29.0366 26.6826 29.0027 26.8371 28.9725 27.5172C28.9326 28.4207 28.659 29.3963 28.4077 29.5307C28.2257 29.6282 26.02 29.6583 25.5993 29.5691C25.2377 29.4924 25.2316 29.3885 25.563 28.952C25.7467 28.71 25.9372 28.5681 26.228 28.4563L26.6356 28.2996L26.6365 27.94C26.6375 27.4887 26.4129 26.6047 26.0935 25.8025L25.8477 25.1854L26.0006 24.7057C26.2064 24.0596 26.2253 23.9674 26.4838 22.3458C26.6075 21.5702 26.7318 20.8123 26.7601 20.6615C26.8098 20.3957 26.8075 20.3925 26.6859 20.5563C26.5438 20.7475 26.2514 21.6465 25.7731 23.3629C25.5932 24.0085 25.3477 24.7315 25.2276 24.9694C24.9098 25.5988 24.3617 26.2957 23.7885 26.7989C23.4116 27.1298 23.2739 27.3069 23.2359 27.5099C23.208 27.6586 23.0359 27.9852 22.8536 28.2358C22.1935 29.1426 22.0796 29.4087 22.4578 29.1609L22.6653 29.025L22.6117 29.616C22.54 30.408 22.391 30.9535 21.9656 31.9816C21.4192 33.3018 21.3024 33.7198 21.2541 34.5276C21.1927 35.5538 21.1592 35.6257 20.7442 35.6191C20.56 35.6161 20.1801 35.5545 19.9001 35.482C19.4098 35.3552 19.3914 35.3414 19.4047 35.1152C19.615 31.5617 19.6705 31.0212 19.9474 29.8346C20.1601 28.9229 20.3888 28.4706 21.1258 27.5043C21.3937 27.1531 21.5957 26.8485 21.5747 26.8275C21.4846 26.7375 21.2319 25.0528 21.2319 24.5427C21.2319 23.7582 21.42 22.3414 21.659 21.3274C21.9715 20.0006 21.9634 20.0165 22.5612 19.572C23.2192 19.0827 23.7387 18.5074 23.7387 18.2681C23.7387 18.1703 23.6005 17.9154 23.4315 17.7016C23.1566 17.3538 23.1288 17.2789 23.1676 16.9895C23.1914 16.8117 23.2217 16.6661 23.2348 16.6661C23.2478 16.6661 23.3578 16.7051 23.479 16.7529ZM25.6184 30.0537C26.3974 30.1077 28.1064 30.0453 28.6239 29.9441L28.9262 29.885L28.8695 30.1499C28.8383 30.2956 28.7804 30.4551 28.7408 30.5043C28.592 30.6896 27.6164 30.8065 26.2197 30.8065C24.6397 30.8065 24.6005 30.7917 24.6005 30.1956C24.6005 29.9341 24.6207 29.8972 24.7376 29.9455C24.8129 29.9766 25.2093 30.0253 25.6184 30.0537ZM28.6742 31.4574C28.6742 31.7772 28.5049 31.8593 27.6557 31.9512C26.7833 32.0456 25.1027 32.0093 24.9954 31.8938C24.9602 31.8559 24.9095 31.7521 24.8827 31.663C24.8346 31.5031 24.8534 31.5011 26.382 31.503C27.279 31.5041 28.0617 31.4684 28.2433 31.4182C28.6756 31.2986 28.6742 31.2984 28.6742 31.4574ZM28.4391 34.2564V36.0221L28.7721 36.2221C28.9552 36.3321 29.5809 36.7008 30.1626 37.0416C30.7443 37.3823 31.3152 37.7444 31.4315 37.8463C31.8892 38.2476 31.7526 38.7594 31.1885 38.7566C31.0336 38.7558 30.5432 38.7034 30.0987 38.6403C29.6542 38.577 28.757 38.4895 28.1049 38.4457C27.4528 38.402 26.8879 38.3349 26.8497 38.2967C26.8115 38.2584 26.782 37.9941 26.7842 37.7092C26.7876 37.2663 26.7683 37.1912 26.6509 37.1912C26.4993 37.1912 25.6049 36.9683 25.5546 36.918C25.5372 36.9006 25.5798 36.7195 25.6493 36.5156C25.8867 35.8189 25.7847 34.2272 25.436 33.1878L25.2548 32.6475L26.3182 32.6406C26.903 32.6368 27.5578 32.6063 27.7732 32.5728C27.9887 32.5392 28.2267 32.507 28.302 32.5013C28.4289 32.4916 28.4391 32.6231 28.4391 34.2564ZM20.7748 35.9864C20.9161 36.0254 21.0752 36.3988 21.0752 36.6912C21.0752 36.8281 21.0432 36.8607 20.9456 36.8232C20.8329 36.78 20.8229 36.8167 20.8687 37.1038C20.8978 37.2854 21.0267 37.762 21.1551 38.1629C21.2835 38.5637 21.3885 38.9443 21.3885 39.0085C21.3885 39.3811 20.6114 39.5491 19.608 39.3933C18.9132 39.2855 18.5533 39.1213 18.384 38.8349C18.0982 38.3509 18.2754 37.9174 19.0087 37.3075C19.672 36.7557 19.6601 36.7739 19.323 36.825L19.0202 36.871L19.0699 36.6219C19.0973 36.485 19.2336 36.2555 19.3726 36.112C19.6214 35.8554 19.6338 35.8519 20.1349 35.9007C20.4151 35.9281 20.7031 35.9666 20.7748 35.9864Z" fill="url(#paint0_linear_293_55)"/>
<defs>
<linearGradient id="paint0_linear_293_55" x1="16.9649" y1="0" x2="16.9649" y2="40" gradientUnits="userSpaceOnUse">
<stop stop-color="#58A6FF"/>
<stop offset="1" stop-color="#6768AB"/>
</linearGradient>
</defs>
</svg>
