<svg width="40" height="40" viewBox="0 0 40 40" fill="none" xmlns="http://www.w3.org/2000/svg">
<path fill-rule="evenodd" clip-rule="evenodd" d="M17.0494 0.0465083C14.3314 0.121058 12.1757 0.256279 9.96125 0.491131C8.97307 0.595917 8.2468 0.745611 7.18546 1.06334C5.79152 1.4806 5.71052 1.52016 4.5088 2.36806C3.3166 3.20932 3.23541 3.28972 2.36797 4.49124L1.46634 5.74005L1.00932 7.32622C0.530498 8.98783 0.443259 9.61337 0.124539 13.6709C-0.041513 15.7857 -0.041513 24.2454 0.124539 26.3602C0.443259 30.4177 0.530498 31.0433 1.00932 32.7049L1.46634 34.291L2.36797 35.5386C3.23224 36.7343 3.32086 36.8224 4.50613 37.663C5.71052 38.5173 5.78011 38.5513 7.18278 38.9692C8.69361 39.4193 9.68962 39.5641 12.8857 39.7977C16.5819 40.0679 23.2161 40.0674 26.963 39.7965C30.1607 39.5654 31.1419 39.4231 32.6659 38.9691C34.0687 38.5513 34.1381 38.5174 35.3426 37.663C36.5279 36.8224 36.6165 36.7343 37.4807 35.5386L38.3824 34.291L38.8394 32.7049C39.3182 31.0433 39.4055 30.4177 39.7242 26.3602C39.8902 24.2454 39.8902 15.7857 39.7242 13.6709C39.4055 9.61337 39.3182 8.98783 38.8394 7.32622L38.3824 5.74005L37.4807 4.49124C36.6133 3.28972 36.5321 3.20932 35.3399 2.36806C34.1383 1.52016 34.0571 1.4806 32.6633 1.06324C31.5778 0.738275 30.8859 0.597206 29.8379 0.487661C27.6734 0.261236 25.8496 0.143562 23.6419 0.0879468C22.5242 0.0597923 21.1636 0.023013 20.6183 0.00625908C20.0731 -0.0104948 18.4671 0.00754804 17.0494 0.0465083ZM26.6656 3.45181C31.2229 3.80106 31.9971 3.96949 33.4068 4.91782C34.5948 5.71705 35.3433 6.72784 35.7588 8.09422C36.2866 9.83028 36.6487 14.6807 36.6487 20.0156C36.6487 25.3504 36.2866 30.2008 35.7588 31.9369C35.1615 33.9011 33.6166 35.4049 31.6223 35.9634C29.8386 36.4628 25.4248 36.7654 19.9244 36.7654C14.4239 36.7654 10.0101 36.4628 8.22638 35.9634C6.23207 35.4049 4.68725 33.9011 4.08996 31.9369C3.56216 30.2008 3.20002 25.3504 3.20002 20.0156C3.20002 14.6807 3.56216 9.83028 4.08996 8.09422C4.68725 6.12995 6.23207 4.62617 8.22638 4.06774C9.36376 3.74931 12.0528 3.48561 16.3555 3.27069C17.8976 3.19366 24.903 3.31669 26.6656 3.45181ZM25.8229 10.0477C23.708 10.1225 23.3983 10.2766 23.1962 11.3539L23.13 11.7067L24.0551 11.8349C24.564 11.9054 25.011 11.9904 25.0486 12.0239C25.1066 12.0756 24.8778 22.151 24.8067 22.6762C24.7931 22.7766 23.1604 20.0197 21.1786 16.55L17.5751 10.2413L15.8253 10.3057C12.325 10.4348 11.6664 10.4946 11.3781 10.7098C10.9529 11.0273 10.7361 11.3865 10.6825 11.8623L10.6323 12.3069L11.2138 12.3722C12.5565 12.523 12.5389 12.5165 12.5375 12.8617C12.5367 13.0341 12.4481 16.3426 12.3405 20.2138C12.2329 24.0851 12.1443 27.4796 12.1435 27.7571L12.1422 28.2618L11.5722 28.3883C11.2587 28.4578 10.876 28.5795 10.7217 28.6585C10.4335 28.8062 10.1595 29.3102 10.1595 29.6927V29.9088L12.7618 29.8406C16.3468 29.7466 16.7471 29.6581 17.158 28.8683C17.4086 28.3866 17.3576 28.34 16.2471 28.036C15.6695 27.8778 15.1595 27.7252 15.1138 27.6971C15.0681 27.6688 15.0932 25.4605 15.1695 22.7897C15.2459 20.1189 15.3097 17.4663 15.3115 16.895L15.3146 15.8562L18.8445 22.1987C20.7859 25.6871 22.5745 28.7866 22.8191 29.0864C23.0638 29.3863 23.4212 29.7135 23.6133 29.8135C24.3743 30.2096 25.4603 30.1269 26.6794 29.58L27.2882 29.307L27.3497 27.8831C27.3835 27.1001 27.4775 23.7158 27.5587 20.3625C27.7613 11.9859 27.7793 11.6386 28.0092 11.6386C28.4447 11.6386 29.2176 11.4061 29.3871 11.2242C29.5975 10.9984 29.7291 10.4337 29.6382 10.1472C29.5697 9.9314 29.302 9.92446 25.8229 10.0477Z" fill="url(#paint0_linear_294_37)"/>
<defs>
<linearGradient id="paint0_linear_294_37" x1="19.9244" y1="0" x2="19.9244" y2="40" gradientUnits="userSpaceOnUse">
<stop stop-color="#58A6FF"/>
<stop offset="1" stop-color="#6768AB"/>
</linearGradient>
</defs>
</svg>
