<svg width="51" height="40" viewBox="0 0 51 40" fill="none" xmlns="http://www.w3.org/2000/svg">
<path fill-rule="evenodd" clip-rule="evenodd" d="M7.03554 0.0500221C5.62277 0.126648 2.74264 0.40027 1.26181 0.598336L0 0.767187V20.0918V39.4163H4.43545H8.87089V32.4716V25.5271L11.5857 25.5255C15.7321 25.5234 18.6408 24.9652 21.2695 23.6669C24.6747 21.9856 26.5445 19.7943 27.6293 16.2139C27.9964 15.0022 28.0383 14.6173 28.0505 12.3448C28.0637 9.86811 28.0545 9.79409 27.5587 8.36817C25.9989 3.88255 22.6995 1.34242 17.13 0.339091C15.7137 0.0839761 9.62385 -0.0905357 7.03554 0.0500221ZM14.7934 6.91472C17.7776 7.61827 19.2959 9.41096 19.3277 12.2683C19.3653 15.6327 17.5404 17.8094 14.0702 18.5393C12.939 18.7772 10.8103 18.8398 9.58057 18.6713L8.87089 18.574V12.7918V7.0097L9.52092 6.86409C10.5587 6.63161 13.7219 6.66205 14.7934 6.91472ZM38.8484 10.4556C33.0956 11.2307 29.3657 14.8487 29.3657 19.6539C29.3657 21.911 30.1043 23.5235 31.8844 25.1531C33.2226 26.3782 34.3935 27.0286 37.3589 28.194C40.9468 29.6043 41.525 30.058 41.525 31.4631C41.525 32.4009 41.1499 32.9425 40.1556 33.4405C38.4364 34.3016 33.9523 33.6345 30.8612 32.0576C30.5272 31.887 30.2308 31.7707 30.2028 31.7986C30.1747 31.8268 29.8342 33.1221 29.4462 34.6771C29.0583 36.2321 28.7058 37.6216 28.6629 37.7649C28.5631 38.0987 29.2929 38.4798 31.07 39.0217C36.0241 40.5325 41.8491 40.2739 45.4959 38.3815C46.9656 37.6187 48.6371 35.9536 49.252 34.6396C49.9135 33.2261 50.2097 31.6527 50.0803 30.2413C49.8488 27.7174 48.9147 25.9391 47.057 24.4855C45.7351 23.4511 44.8575 22.9973 42.2565 22.0027C39.8776 21.093 38.8871 20.6051 38.438 20.1219C37.4349 19.0428 37.7125 17.6064 39.063 16.888C39.5985 16.6033 39.9343 16.5551 41.372 16.5571C43.1912 16.5597 44.6601 16.8809 46.3842 17.6531C46.8697 17.8706 47.2927 18.0212 47.3242 17.9879C47.3559 17.9545 47.7274 16.5961 48.1498 14.969L48.9181 12.0107L48.2047 11.6952C46.545 10.9611 44.191 10.5252 41.4485 10.4443C40.3129 10.4108 39.1428 10.4158 38.8484 10.4556Z" fill="url(#paint0_linear_294_21)"/>
<defs>
<linearGradient id="paint0_linear_294_21" x1="25.055" y1="0" x2="25.055" y2="40" gradientUnits="userSpaceOnUse">
<stop stop-color="#58A6FF"/>
<stop offset="1" stop-color="#6768AB"/>
</linearGradient>
</defs>
</svg>
