<svg width="41" height="40" viewBox="0 0 41 40" fill="none" xmlns="http://www.w3.org/2000/svg">
<path fill-rule="evenodd" clip-rule="evenodd" d="M22.1286 8.04495C17.6406 12.4813 13.95 16.1182 13.927 16.1271C13.9041 16.1361 11.7019 14.4989 9.03313 12.489C6.36444 10.4791 4.14932 8.81489 4.11067 8.79076C4.04957 8.75261 3.7762 8.83512 2.02019 9.42186L0 10.0969L5.0063 15.0406C7.75973 17.7597 10.0097 19.9957 10.0062 20.0095C10.0027 20.0232 7.75437 22.2539 5.00999 24.9664C2.2656 27.6789 0.0330742 29.9099 0.0488107 29.9243C0.0645472 29.9385 0.97232 30.2479 2.06608 30.6117L4.05472 31.2733L8.90728 27.6179C11.5762 25.6074 13.7961 23.9384 13.8404 23.9089C13.9313 23.8485 13.6163 23.5498 17.1195 27.0188C25.9291 35.7425 30.2645 40.0029 30.3295 40C30.3845 39.9976 36.0979 37.5831 39.6885 36.0447L40.0976 35.8695V20.0048V4.14014L35.2495 2.08068C32.5831 0.947999 30.3761 0.0117114 30.345 8.31148e-05C30.3036 -0.0154097 28.1092 2.13311 22.1286 8.04495ZM30.2658 28.4525C30.2498 28.4686 19.0554 20.0448 19.0446 20.0084C19.0406 19.9952 21.563 18.0837 24.6498 15.7605L30.2623 11.5366L30.271 19.9876C30.2759 24.6356 30.2735 28.4448 30.2658 28.4525Z" fill="url(#paint0_linear_294_33)"/>
<defs>
<linearGradient id="paint0_linear_294_33" x1="40.0976" y1="20.0018" x2="-0.00960475" y2="20.0018" gradientUnits="userSpaceOnUse">
<stop stop-color="#58A6FF"/>
<stop offset="1" stop-color="#6768AB"/>
</linearGradient>
</defs>
</svg>
