<svg width="27" height="40" viewBox="0 0 27 40" fill="none" xmlns="http://www.w3.org/2000/svg">
<path fill-rule="evenodd" clip-rule="evenodd" d="M20.7193 0.219835C20.1237 0.477412 19.455 1.1228 19.0962 1.78635C18.8126 2.31111 18.8117 2.3411 18.7758 12.4962C18.7362 23.6979 18.7255 23.5284 19.5306 24.5C20.7941 26.0245 23.2697 25.8918 24.4541 24.2358L24.8632 23.6639L24.8998 13.054C24.9412 1.06531 24.9966 1.75517 23.9156 0.80366C23.0181 0.0136939 21.7371 -0.220336 20.7193 0.219835ZM2.49948 4.73152C1.53573 4.98133 0.78444 5.57805 0.307172 6.47273L0 7.0484V19.48V31.9116L0.307172 32.4873C0.899548 33.5978 1.87184 34.2059 3.06278 34.2109C4.26858 34.2159 5.27863 33.5843 5.8985 32.4378C6.17818 31.9204 6.18396 31.7864 6.24869 24.419L6.31446 16.9265L8.69633 20.4066C12.8666 26.5001 14.0377 28.2087 14.5981 29.0175C14.899 29.4516 16.5559 31.8669 18.28 34.3849C21.5698 39.1893 21.8694 39.5346 23.024 39.8552C24.1974 40.1809 25.2256 39.956 26.0543 39.1922C26.7329 38.5665 26.9532 37.9868 26.8741 37.0334C26.8088 36.2469 27.2532 36.9465 21.5121 28.5916C19.8099 26.1145 17.618 22.9201 16.6412 21.493C15.6645 20.0658 14.1531 17.8599 13.2827 16.591C5.37216 5.05816 5.58593 5.34521 4.60311 4.93463C4.05612 4.706 2.99332 4.60339 2.49948 4.73152Z" fill="url(#paint0_linear_293_25)"/>
<defs>
<linearGradient id="paint0_linear_293_25" x1="12.8855" y1="-0.778916" x2="12.8855" y2="40" gradientUnits="userSpaceOnUse">
<stop stop-color="#58A6FF"/>
<stop offset="1" stop-color="#6768AB"/>
</linearGradient>
</defs>
</svg>
