<svg width="45" height="40" viewBox="0 0 45 40" fill="none" xmlns="http://www.w3.org/2000/svg">
<path fill-rule="evenodd" clip-rule="evenodd" d="M31.2734 0.00525109C30.7169 0.0615195 30.449 0.106018 30.0223 0.21305C27.8121 0.767586 25.3177 2.31584 22.7416 4.73211L22.4968 4.96165L22.2211 4.70119C21.8801 4.37897 21.3362 3.90288 20.934 3.57454C17.359 0.65579 13.9864 -0.539617 11.7166 0.307411C10.1881 0.877821 9.17857 2.46573 8.83504 4.84007C8.74532 5.46006 8.72184 5.79283 8.71013 6.61023C8.68909 8.07879 8.81282 9.35459 9.1371 11.0128C9.21675 11.4201 9.43117 12.3856 9.45681 12.4524C9.46344 12.4697 9.37422 12.5044 9.17029 12.5639C6.88288 13.2315 4.82171 14.1494 3.31033 15.1735C2.6522 15.6195 2.17213 16.0108 1.68731 16.4963C0.76448 17.4206 0.21797 18.367 0.0453019 19.34C0.000743624 19.591 -0.0142092 20.0939 0.0152361 20.3509C0.116223 21.2322 0.514025 22.0882 1.2339 22.9731C1.46312 23.2549 2.10697 23.8958 2.42863 24.1624C4.10727 25.5539 6.4227 26.7147 9.1444 27.5292C9.28202 27.5704 9.40222 27.6106 9.41151 27.6185C9.4208 27.6264 9.38275 27.8301 9.32694 28.0711C9.00693 29.453 8.81978 30.6625 8.72046 31.9908C8.68139 32.5136 8.68719 33.8618 8.73061 34.3429C8.85199 35.6881 9.11412 36.7253 9.55616 37.6095C10.2367 38.9708 11.2339 39.7251 12.6374 39.9402C12.9636 39.9902 13.7438 39.9906 14.1187 39.9409C16.1308 39.6741 18.4242 38.5524 20.7562 36.6943C21.3013 36.26 21.7267 35.8893 22.428 35.2373L22.5703 35.105L22.6182 35.1569C22.7135 35.2602 23.4346 35.9168 23.767 36.2029C25.4532 37.654 27.1628 38.748 28.7112 39.3667C30.6157 40.1276 32.2515 40.2039 33.4986 39.5898C34.9804 38.8602 35.9333 37.1036 36.2253 34.5631C36.3436 33.5345 36.3472 32.3359 36.2359 31.1201C36.1452 30.1298 35.9612 28.9968 35.7262 27.9806C35.618 27.5133 35.6155 27.497 35.6522 27.497C35.7012 27.4969 36.5259 27.2308 36.9983 27.0625C40.1466 25.9411 42.5534 24.437 43.8689 22.7686C44.2129 22.3324 44.5813 21.6829 44.735 21.2416C44.824 20.9863 44.9061 20.6365 44.9353 20.3883C44.9704 20.0908 44.9521 19.5615 44.8974 19.2881C44.5473 17.541 42.9977 15.8791 40.3813 14.4447C39.1366 13.7624 37.4233 13.0668 35.8474 12.604C35.6877 12.5571 35.5495 12.5119 35.5403 12.5036C35.531 12.4952 35.5598 12.332 35.6044 12.1409C36.2165 9.51697 36.3923 6.94784 36.0977 4.93255C35.8904 3.51521 35.4735 2.39843 34.8291 1.53467C34.6913 1.34987 34.3442 0.988856 34.1559 0.834484C33.6493 0.419067 33.0084 0.145051 32.3043 0.0428435C32.1001 0.013198 31.4348 -0.0110629 31.2734 0.00525109ZM32.0952 1.94576C32.3305 1.98679 32.5422 2.05928 32.7247 2.16128C32.9194 2.27016 33.2542 2.6002 33.4118 2.83859C33.9144 3.59904 34.2187 4.74991 34.3082 6.2287C34.3366 6.69872 34.3201 7.80165 34.2767 8.33051C34.2152 9.08047 34.1003 9.92552 33.9554 10.6948C33.8671 11.1636 33.6861 11.9883 33.667 12.009C33.6592 12.0175 33.5318 11.9968 33.3839 11.9632C31.8545 11.6151 29.9507 11.3153 27.8909 11.0981L27.651 11.0729L27.5606 10.9499C27.5108 10.8822 27.3091 10.6044 27.1122 10.3325C26.1751 9.03795 25.1502 7.76912 24.1423 6.65579C23.9854 6.4825 23.857 6.33287 23.857 6.3233C23.857 6.30593 24.3375 5.85612 24.6978 5.53625C26.9675 3.52075 29.262 2.22294 31.0279 1.95571C31.3439 1.90789 31.8509 1.90316 32.0952 1.94576ZM14.0186 2.01354C15.1255 2.20897 16.4002 2.75854 17.7718 3.63173C18.522 4.10932 19.3681 4.74254 20.1439 5.40709C20.4305 5.65267 21.028 6.19439 21.1106 6.28371L21.1566 6.33343L21.009 6.49125C19.9828 7.58845 18.6642 9.21493 17.53 10.7826L17.32 11.0729L16.9804 11.1069C15.1805 11.2872 13.2201 11.5909 11.69 11.9266C11.4882 11.9709 11.3202 12.0041 11.3168 12.0004C11.3043 11.987 11.1072 11.1243 11.0385 10.7826C10.8411 9.80005 10.7205 8.93206 10.6421 7.93016C10.609 7.50714 10.6088 6.21253 10.6417 5.83837C10.7592 4.50466 11.0334 3.53508 11.4829 2.86475C11.8414 2.33003 12.2386 2.07421 12.8639 1.9753C13.0656 1.9434 13.7496 1.96606 14.0186 2.01354ZM22.7406 7.95582C23.4657 8.7609 24.2527 9.71167 24.9381 10.6105L25.1655 10.9088L24.9967 10.896C24.2542 10.8395 21.2852 10.8304 20.2343 10.8813C20.0199 10.8917 19.841 10.8968 19.8368 10.8926C19.8218 10.8776 20.5987 9.89569 21.1354 9.2513C21.6178 8.67202 22.4761 7.69997 22.5051 7.69997C22.5079 7.69997 22.6139 7.8151 22.7406 7.95582ZM23.6969 12.7645C24.746 12.79 26.5683 12.8813 26.59 12.9095C26.5921 12.9122 26.6931 13.0636 26.8145 13.2459C28.064 15.1222 29.2717 17.1925 30.3997 19.3918C30.5555 19.6955 30.6829 19.9591 30.6829 19.9774C30.6829 20.015 30.2521 20.8837 29.9169 21.5218C29.0137 23.2417 27.923 25.0965 26.8965 26.6583L26.5991 27.1106L26.3741 27.1244C25.7813 27.1606 25.051 27.1974 24.4876 27.2195C23.6914 27.2507 21.2173 27.2508 20.3741 27.2196C19.615 27.1917 18.5984 27.1413 18.4804 27.1258C18.3998 27.1153 18.3945 27.1095 18.1778 26.7906C16.9228 24.9435 15.6066 22.6801 14.5471 20.547L14.2816 20.0126L14.4375 19.6863C14.6545 19.2319 15.2189 18.1419 15.5638 17.5109C16.3779 16.0217 17.173 14.7094 18.1202 13.2915L18.3765 12.9079L18.4895 12.896C18.5517 12.8895 18.8187 12.8709 19.0829 12.8548C20.6912 12.7567 22.1778 12.7276 23.6969 12.7645ZM15.9102 13.156C15.9102 13.1622 15.763 13.4032 15.5831 13.6915C14.8375 14.886 14.0887 16.1889 13.4671 17.3733C13.3645 17.5687 13.2743 17.7286 13.2665 17.7286C13.2374 17.7286 12.7208 16.4252 12.4203 15.5935C12.193 14.9642 11.8467 13.9299 11.8467 13.88C11.8467 13.8423 11.9559 13.8159 12.8076 13.6478C13.5624 13.4988 14.4373 13.3521 15.1996 13.2466C15.7141 13.1754 15.8387 13.1576 15.8952 13.1474C15.9035 13.1459 15.9102 13.1497 15.9102 13.156ZM29.582 13.2256C30.6786 13.3746 32.0899 13.6263 33.0011 13.8354L33.1474 13.869L33.1336 13.9322C33.0735 14.2074 32.4257 16.0078 32.0762 16.8714C31.767 17.6349 31.7171 17.7499 31.7011 17.7338C31.6927 17.7254 31.5897 17.5384 31.4721 17.3182C30.8132 16.0844 29.7736 14.2998 29.1483 13.3291C29.0896 13.2379 29.0415 13.1603 29.0415 13.1567C29.0415 13.1531 29.0618 13.1534 29.0865 13.1573C29.1113 13.1612 29.3343 13.1919 29.582 13.2256ZM10.1721 14.9313C10.6886 16.5184 11.3271 18.1549 12.0495 19.7429L12.1691 20.0056L11.9857 20.4122C11.5541 21.3696 11.0312 22.6494 10.6653 23.6437C10.5058 24.0773 10.0271 25.4934 9.97188 25.6954C9.95732 25.7486 9.94335 25.7641 9.91386 25.7595C9.83155 25.7467 9.05697 25.504 8.70402 25.3804C6.0747 24.4595 3.96371 23.2031 2.80992 21.8724C1.98131 20.9168 1.73133 20.0908 2.03031 19.2965C2.6734 17.588 5.35028 15.7881 8.98427 14.6209C9.3219 14.5125 9.93032 14.3283 9.9551 14.327C9.96611 14.3264 10.0638 14.5984 10.1721 14.9313ZM35.6672 14.5491C37.0749 14.9882 38.4956 15.5826 39.5843 16.1882C41.4589 17.2308 42.7053 18.4527 42.9967 19.5335C43.0587 19.7632 43.0591 20.1686 42.9975 20.3948C42.7601 21.2682 41.9868 22.1845 40.7215 23.0921C39.6284 23.8762 38.0722 24.651 36.3778 25.255C35.9736 25.3991 35.1035 25.6808 35.0961 25.67C35.0943 25.6675 34.9975 25.3806 34.881 25.0326C34.3667 23.4969 33.798 22.0941 32.9039 20.1559L32.8186 19.9709L32.8795 19.8356C33.7972 17.7966 34.3532 16.3836 34.8758 14.7625L35.0093 14.3486L35.113 14.3786C35.1701 14.3952 35.4195 14.4719 35.6672 14.5491ZM22.0755 15.9696C20.7114 16.1074 19.5051 16.9439 18.8865 18.181C18.3333 19.287 18.3335 20.6386 18.8869 21.742C19.2077 22.3817 19.6587 22.8937 20.2611 23.302C20.5032 23.4661 20.9138 23.6683 21.1948 23.7619C23.113 24.4004 25.2006 23.5287 26.0798 21.722C26.3587 21.1491 26.482 20.6089 26.482 19.9605C26.482 19.3119 26.3602 18.7787 26.0795 18.199C25.4746 16.9496 24.2414 16.0986 22.8462 15.9677C22.594 15.9441 22.3212 15.9447 22.0755 15.9696ZM31.9253 22.6478C32.4115 23.792 32.8099 24.8461 33.181 25.9703L33.242 26.1551L33.1685 26.1745C32.9292 26.2374 31.8744 26.4458 31.2434 26.5547C30.5513 26.6742 29.0645 26.8861 29.0463 26.8679C29.0427 26.8643 29.127 26.7229 29.2335 26.5537C29.933 25.4423 30.9115 23.7401 31.5537 22.5176C31.6417 22.3499 31.7197 22.2126 31.727 22.2126C31.7343 22.2125 31.8235 22.4083 31.9253 22.6478ZM13.5181 22.7283C14.1529 23.931 14.9604 25.3255 15.6748 26.4528C15.8167 26.6767 15.9371 26.871 15.9423 26.8846C15.9618 26.9354 14.1537 26.6887 13.0878 26.495C12.538 26.3952 11.8377 26.2524 11.8207 26.2366C11.8007 26.2182 12.216 24.9658 12.4781 24.2542C12.5855 23.9624 12.7948 23.422 12.9431 23.0532C13.0913 22.6843 13.2226 22.3578 13.2347 22.3275C13.2468 22.2973 13.2615 22.2727 13.2673 22.2729C13.2732 22.2732 13.386 22.4781 13.5181 22.7283ZM33.7845 28.0725C33.8298 28.2357 33.9882 28.9683 34.0538 29.3186C34.3136 30.705 34.4224 31.9035 34.3999 33.1318C34.3885 33.7531 34.3597 34.1572 34.2945 34.6131C34.0369 36.415 33.3844 37.6217 32.4935 37.9441C32.2276 38.0402 32.0658 38.0692 31.7294 38.0809C31.1454 38.1011 30.5694 37.9989 29.8312 37.7442C28.113 37.1513 26.159 35.8559 24.1625 33.986L23.8975 33.7378L23.9624 33.6622C23.998 33.6206 24.185 33.4077 24.3779 33.189C25.4153 32.013 26.643 30.4304 27.6403 28.9835C27.6683 28.9429 27.7122 28.9358 28.2909 28.878C28.9425 28.8129 29.9377 28.6912 30.5128 28.6063C31.4351 28.4702 32.9056 28.1992 33.5354 28.0494C33.6455 28.0233 33.7419 28.0008 33.7496 27.9996C33.7574 27.9984 33.7731 28.0312 33.7845 28.0725ZM11.9225 28.2167C13.4633 28.5255 15.071 28.7556 16.7509 28.9079C17.0647 28.9363 17.3312 28.9629 17.3432 28.967C17.3551 28.9711 17.4539 29.0992 17.5627 29.2516C18.476 30.5311 19.6965 32.0531 20.7127 33.1796C21.1573 33.6724 21.2148 33.7374 21.2148 33.747C21.2148 33.7515 21.0684 33.8908 20.8895 34.0564C19.7093 35.1494 18.5279 36.0416 17.3515 36.7286C15.1721 38.0013 13.1872 38.4078 12.148 37.7944C11.4776 37.3986 10.9737 36.4149 10.7463 35.0579C10.4547 33.3175 10.5951 31.117 11.1555 28.648C11.2661 28.1603 11.2835 28.0975 11.3077 28.0975C11.3187 28.0975 11.5953 28.1511 11.9225 28.2167ZM25.1982 29.1068C25.1982 29.1396 24.2452 30.3725 23.7891 30.9299C23.3127 31.5121 22.5762 32.3613 22.5533 32.3548C22.515 32.3438 21.6573 31.3712 21.1557 30.7698C20.6035 30.1078 19.8437 29.1416 19.8614 29.1239C19.8663 29.119 20.2697 29.126 20.7577 29.1396C21.6463 29.1641 24.11 29.1522 24.7578 29.1201C24.9175 29.1122 25.0819 29.1041 25.1231 29.1021C25.1644 29.1 25.1982 29.1022 25.1982 29.1068Z" fill="url(#paint0_linear_293_9)"/>
<defs>
<linearGradient id="paint0_linear_293_9" x1="22.4766" y1="0" x2="22.4766" y2="40" gradientUnits="userSpaceOnUse">
<stop stop-color="#58A6FF"/>
<stop offset="1" stop-color="#6768AB"/>
</linearGradient>
</defs>
</svg>
