<svg width="40" height="40" viewBox="0 0 40 40" fill="none" xmlns="http://www.w3.org/2000/svg">
<path fill-rule="evenodd" clip-rule="evenodd" d="M3.53107 0.140502C2.68345 0.363804 2.07104 0.72386 1.40323 1.39165C0.972813 1.82204 0.73643 2.14012 0.522005 2.5774C-0.0331248 3.70966 0.0017271 2.54545 0.000164231 20.0406C-0.0011642 35.5105 0.00196151 35.8422 0.153169 36.435C0.23811 36.7677 0.4212 37.258 0.560061 37.5245C0.920067 38.2152 1.84669 39.12 2.56107 39.4782C3.69993 40.0493 2.44839 40.0131 20.2379 39.9889L36.2182 39.9671L36.8025 39.7534C38.2518 39.2233 39.3058 38.1096 39.8249 36.56C39.9629 36.1477 39.97 35.4528 39.99 20.3499C40.0133 2.70303 40.0444 3.7648 39.4687 2.60732C38.9125 1.48948 37.9921 0.6706 36.8025 0.235509L36.2182 0.0217622L20.1598 0.006019C4.55326 -0.00925422 4.08534 -0.00549466 3.53107 0.140502ZM16.2973 7.49334C16.7295 7.69017 17.0885 8.14696 17.1926 8.63296C17.252 8.90984 17.2703 12.0705 17.2535 19.1329L17.2294 29.2367L17.0124 29.6066C16.8718 29.8465 16.6657 30.0531 16.4263 30.194L16.0573 30.4116H12.3845C8.3747 30.4116 8.35391 30.4094 7.89279 29.9595C7.3461 29.4259 7.38595 30.2372 7.35915 19.0937C7.34219 12.0482 7.36048 8.91023 7.42002 8.63296C7.52434 8.14696 7.88341 7.69009 8.31554 7.49334C8.61053 7.35902 8.90053 7.34852 12.3064 7.34852C15.7123 7.34852 16.0023 7.35902 16.2973 7.49334ZM31.6287 7.46632C32.0013 7.62234 32.2482 7.85622 32.4437 8.23836C32.5945 8.53325 32.6016 8.74199 32.6433 14.076C32.6905 20.1207 32.6876 20.1692 32.253 20.6976C31.7644 21.2918 31.8303 21.2833 27.7006 21.2833C24.2947 21.2833 24.0048 21.2728 23.7098 21.1385C23.3065 20.9549 22.9331 20.5038 22.8235 20.0677C22.708 19.6078 22.7059 8.91469 22.8214 8.49824C22.9217 8.13607 23.2915 7.70067 23.6684 7.50102C23.9332 7.36074 24.1672 7.35181 27.6445 7.34852C30.8081 7.34554 31.3809 7.36254 31.6287 7.46632Z" fill="url(#paint0_linear_294_5)"/>
<defs>
<linearGradient id="paint0_linear_294_5" x1="20" y1="0" x2="20" y2="40" gradientUnits="userSpaceOnUse">
<stop stop-color="#58A6FF"/>
<stop offset="1" stop-color="#6768AB"/>
</linearGradient>
</defs>
</svg>
