<svg width="40" height="40" viewBox="0 0 40 40" fill="none" xmlns="http://www.w3.org/2000/svg">
<path fill-rule="evenodd" clip-rule="evenodd" d="M0 20V40H20H40V20V0H20H0V20ZM32.4819 18.4322C33.4838 18.7197 35.625 20.4578 35.625 20.9838C35.625 21.1138 35.0109 21.6425 34.2603 22.1587L32.8959 23.0978L32.1747 22.33C30.9947 21.0741 28.75 21.4853 28.75 22.9575C28.75 23.9978 29.2822 24.4378 32.3206 25.9084C36.0878 27.7319 37.3128 29.5988 36.7412 32.6456C36.3116 34.9366 33.5084 36.875 30.625 36.875C29.1175 36.875 26.5678 35.9231 25.4525 34.9437C23.5681 33.2894 23.5584 33.0159 25.35 32.0409L26.9256 31.1834L27.41 31.8747C27.9591 32.6588 29.6131 33.4375 30.7291 33.4375C31.6716 33.4375 33.125 32.3194 33.125 31.5944C33.125 30.8131 32.0053 29.9025 29.8569 28.9369C26.2247 27.3044 25 25.8138 25 23.025C25 19.6488 28.7331 17.3572 32.4819 18.4322ZM22.8125 20.1562V21.875H20.3125H17.8125V29.2337V36.5922L15.8594 36.4994L13.9062 36.4062V29.1406V21.8747L11.3281 21.875H8.75V20.1562V18.4375H15.7812H22.8125V20.1562Z" fill="url(#paint0_linear_293_46)"/>
<defs>
<linearGradient id="paint0_linear_293_46" x1="20" y1="0" x2="20" y2="40" gradientUnits="userSpaceOnUse">
<stop stop-color="#58A6FF"/>
<stop offset="1" stop-color="#6768AB"/>
</linearGradient>
</defs>
</svg>
